<?xml version="1.0" standalone="no"?>
<!DOCTYPE svg PUBLIC "-//W3C//DTD SVG 20010904//EN"
 "http://www.w3.org/TR/2001/REC-SVG-20010904/DTD/svg10.dtd">
<svg version="1.0" xmlns="http://www.w3.org/2000/svg"
 width="260.000000pt" height="260.000000pt" viewBox="0 0 260.000000 260.000000"
 preserveAspectRatio="xMidYMid meet">
<metadata>
Created by potrace 1.11, written by Peter Selinger 2001-2013
</metadata>
<g transform="translate(0.000000,260.000000) scale(0.100000,-0.100000)"
fill="#000000" stroke="none">
<path d="M0 1300 l0 -1300 1300 0 1300 0 0 1300 0 1300 -1300 0 -1300 0 0
-1300z m1963 370 c43 -13 79 -33 108 -60 l44 -39 -48 -47 c-46 -44 -49 -45
-70 -30 -67 48 -98 58 -178 54 -67 -3 -83 -7 -120 -33 -23 -17 -53 -50 -66
-75 -21 -39 -24 -56 -21 -122 3 -66 7 -82 33 -119 17 -23 50 -53 75 -66 39
-21 56 -24 126 -21 111 4 114 7 114 129 l0 99 75 0 75 0 0 -139 0 -140 -30
-21 c-86 -61 -264 -87 -376 -56 -108 31 -190 102 -237 204 -31 67 -31 217 0
284 45 99 126 170 228 201 73 23 190 21 268 -3z m-1200 -152 c53 -90 112 -187
131 -217 l34 -54 128 216 128 217 68 0 68 0 0 -350 0 -350 -75 0 -75 0 -2 207
-3 207 -103 -173 -104 -172 -35 3 c-35 3 -39 8 -137 168 l-101 165 -3 -202 -2
-203 -75 0 -75 0 0 350 0 350 68 0 67 0 98 -162z"/>
</g>
</svg>
